<?xml version="1.0" encoding="utf-8"?>
<svg viewBox="-7.686 -5.124 410.325 549.579" xmlns="http://www.w3.org/2000/svg">
  <path id="path222" style="fill: rgb(255, 255, 255);" d="M 96.878 426.786 C 107.111 427.17 114.523 430.224 119.203 435.826 C 123.89 440.512 124.836 445.341 122.023 450.497 C 119.203 454.714 113.665 456.83 105.235 456.83 C 97.283 456.354 90.329 454.254 84.236 450.497 C 78.706 446.769 77.519 441.847 80.814 435.826 C 84.472 429.734 89.869 426.786 96.878 426.786 Z"/>
  <g transform="matrix(0.10000000149011612, 0, 0, -0.10000000149011612, -408.01275634765625, 1143.9127197265625)" fill="#000000" stroke="none">
    <path d="M4588 11470 c-239 -40 -426 -201 -509 -437 -30 -85 -36 -238 -15&#10;-337 43 -190 165 -347 337 -429 112 -54 169 -67 292 -67 112 0 186 18 292 69&#10;198 98 328 300 342 536 9 152 -44 315 -140 433 -145 176 -383 268 -599 232z" style=""/>
    <path d="M5558 11404 c-58 -31 -58 -27 -58 -569 0 -551 -2 -538 66 -570 48&#10;-23 1000 -23 1044 0 61 31 60 25 60 581 l0 506 -34 34 -34 34 -509 0 c-430 -1&#10;-512 -3 -535 -16z" style=""/>
    <path d="M6944 11386 l-34 -34 0 -506 c0 -556 -1 -550 60 -581 44 -23 996 -23&#10;1044 0 68 32 66 19 66 570 0 424 -2 500 -15 525 -31 61 -25 60 -581 60 l-506&#10;0 -34 -34z" style=""/>
    <path d="M4141 9994 c-50 -35 -51 -48 -51 -566 0 -541 -1 -535 70 -570 32 -16&#10;78 -18 518 -18 522 0 531 1 565 53 15 24 17 72 17 532 0 549 0 548 -55 573&#10;-19 9 -161 12 -533 12 -453 0 -510 -2 -531 -16z" style=""/>
    <path d="M5548 9990 c-48 -37 -49 -43 -46 -577 3 -485 4 -502 23 -523 44 -49&#10;52 -50 566 -50 424 0 485 2 515 16 65 31 64 19 64 580 l0 506 -34 34 -34 34&#10;-515 0 c-496 0 -515 -1 -539 -20z" style=""/>
    <path d="M4160 8592 c-71 -35 -70 -29 -70 -570 0 -518 1 -531 51 -566 21 -14&#10;78 -16 532 -16 551 0 550 0 575 55 9 19 12 161 12 531 0 459 -2 507 -17 531&#10;-34 52 -43 53 -565 53 -440 0 -486 -2 -518 -18z" style=""/>
    <path d="M5575 8596 c-16 -7 -39 -23 -50 -36 -19 -21 -20 -38 -23 -523 -3&#10;-534 -2 -540 46 -577 24 -19 43 -20 539 -20 l515 0 34 34 34 34 0 507 c0 460&#10;-2 510 -17 536 -35 59 -34 59 -565 59 -378 -1 -489 -4 -513 -14z" style=""/>
    <path d="M6974 8594 c-66 -32 -64 -18 -64 -579 l0 -507 34 -34 34 -34 516 0&#10;516 0 32 29 33 29 0 520 c0 506 -1 521 -20 542 -44 49 -52 50 -567 50 -410 0&#10;-488 -3 -514 -16z" style=""/>
    <path d="M4160 7187 c-13 -7 -35 -28 -47 -46 l-23 -34 0 -489 c0 -433 2 -494&#10;16 -524 31 -65 19 -64 580 -64 l506 0 34 34 34 34 0 514 c0 563 2 541 -60 573&#10;-25 13 -104 15 -522 15 -374 0 -499 -3 -518 -13z" style=""/>
    <path d="M5564 7184 c-65 -32 -64 -19 -64 -569 0 -424 2 -500 15 -525 31 -61&#10;25 -60 581 -60 l506 0 34 34 34 34 0 506 c0 556 1 550 -60 581 -43 22 -1000&#10;22 -1046 -1z" style=""/>
  </g>
</svg>